<svg xmlns="http://www.w3.org/2000/svg" class="svg-bkgd04" width="32" height="32" viewBox="0 0 48 48"><g><path class="svg-shortcut" d="M28.05 42.5L25 45.2v-1.7c-.44-.1-1.4-.15-2.45.6-1.4 1-1.57 1.47-1.57 1.47s-.4-1.24.8-2.7c1.26-1.54 2.67-1.56 3.23-1.5v-1.63l3.05 2.72z"/></g><g><path class="svg-cluster" d="M28.47 41.3c.65 0 1.2.55 1.2 1.2s-.55 1.2-1.2 1.2-1.2-.54-1.2-1.2.54-1.2 1.2-1.2zm-4 0c.65 0 1.2.55 1.2 1.2s-.55 1.2-1.2 1.2c-.66 0-1.2-.54-1.2-1.2s.54-1.2 1.2-1.2zm-3.97 0c.66 0 1.2.55 1.2 1.2s-.54 1.2-1.2 1.2-1.2-.54-1.2-1.2.54-1.2 1.2-1.2z"/></g><g><path class="svg-icon11" d="M24 32.97a20.72 20.72 0 0 1-3.05-.23c-2.15 2.3-5.34 5.42-5.34 5.42v-7.14c-3.45-1.85-5.6-4.9-5.6-8.48 0-5.97 5.87-10.5 14-10.5s14 4.53 14 10.5-5.85 10.43-14 10.43z"/></g><g><path class="svg-outline" d="M24 32.97a20.72 20.72 0 0 1-3.05-.23c-2.15 2.3-5.34 5.42-5.34 5.42v-7.14c-3.45-1.85-5.6-4.9-5.6-8.48 0-5.97 5.87-10.5 14-10.5s14 4.53 14 10.5-5.85 10.43-14 10.43z"/></g></svg>