<svg viewBox="0 0 28 28" xmlns="http://www.w3.org/2000/svg" class="svg-bkgd06" width="24" height="24"><g><path class="svg-shortcut" d="M28 42.5l-3 2.7v-1.7c-.4 0-1.4 0-2.5.6-1.3 1-1.5 1.6-1.5 1.6s-.4-1.2.8-2.7c1.2-1.6 2.6-1.7 3.2-1.6v-1.6l3 2.7z"/></g><g><path class="svg-cluster" d="M28.5 41.3c.6 0 1.2.5 1.2 1.2s-.6 1.2-1.2 1.2-1.2-.5-1.2-1.2.5-1.2 1.2-1.2zm-4 0c.6 0 1.2.5 1.2 1.2s-.6 1.2-1.2 1.2c-.7 0-1.2-.5-1.2-1.2s.5-1.2 1.2-1.2zm-4 0c.7 0 1.2.5 1.2 1.2s-.5 1.2-1.2 1.2-1.2-.5-1.2-1.2.5-1.2 1.2-1.2z"/></g><g><path class="svg-icon16" d="m19.1 26.4-2.7-5.4h-4.8l-2.7 5.4-1.8-.9 2.9-5.8v-5.7c-1.5-.1-4.1-.7-6.7-3.3l1.4-1.4c2.7 2.7 5.4 2.7 6.3 2.7v1-1h6c.9 0 3.6 0 6.3-2.7l1.4 1.4c-2.6 2.6-5.2 3.1-6.7 3.3v5.8l2.9 5.8zm-7.1-7.4h4v-5h-4zm2-9c-2.2 0-4-1.8-4-4s1.8-4 4-4 4 1.8 4 4-1.8 4-4 4zm0-6c-1.1 0-2 .9-2 2s.9 2 2 2 2-.9 2-2-.9-2-2-2z"/></g><g><path class="svg-outline" d="M11 13H17M11 13V20M11 13C9.83333 13 6.91667 12.9167 4 10M17 13C18.1667 13 21.0833 12.9167 24 10M17 13V20M17 20L20 26M17 20H11M8 26L11 20M17 6C17 7.65685 15.6568 9 14 9C12.3431 9 11 7.65685 11 6C11 4.34315 12.3431 3 14 3C15.6568 3 17 4.34315 17 6Z"/></g></svg>
