<svg id="logo" xmlns="http://www.w3.org/2000/svg" viewBox="0 0 140.15 38.3"><defs><style>.cls-1{fill:none;}</style></defs><title>Oracle_rgb_black</title><path d="M62.28,21.44h7.93L66,14.68,58.33,26.89H54.82l9.36-14.65a2.23,2.23,0,0,1,3.64,0l9.39,14.68h-3.5l-1.65-2.73H64l-1.75-2.72m36.37,2.72V11.43h-3v14a1.47,1.47,0,0,0,.44,1,1.5,1.5,0,0,0,1.09.46h13.54l1.76-2.73H98.65M49.49,21.88a5.23,5.23,0,0,0,0-10.45h-13V26.89h3V14.16h9.83a2.51,2.51,0,0,1,0,5H40.91l8.88,7.73H54.1l-6-5h1.35m-31.29,5h9a7.73,7.73,0,0,0,0-15.46h-9a7.73,7.73,0,1,0,0,15.46M27,24.17H18.4a5,5,0,0,1,0-10H27a5,5,0,1,1,0,10m56.43,2.72h9.18l1.73-2.72H83.62a5,5,0,1,1,0-10h8.71l1.76-2.73H83.41a7.73,7.73,0,1,0,0,15.46m36.35-2.72a5,5,0,0,1-4.82-3.64h12.7l1.75-2.73H114.94a5,5,0,0,1,4.82-3.64h8.72l1.74-2.73H119.56a7.73,7.73,0,1,0,0,15.46h9.17l1.74-2.72H119.76" transform="translate(0.07)"/><rect class="cls-1" width="140.15" height="38.3"/></svg>