<svg viewBox="0 0 48 48" xmlns="http://www.w3.org/2000/svg" class="svg-bkgd10" width="32" height="32"><path class="svg-shortcut" d="M28 42.5l-3 2.7v-1.7c-.4 0-1.4 0-2.5.6-1.3 1-1.5 1.6-1.5 1.6s-.4-1.2.8-2.7c1.2-1.6 2.6-1.7 3.2-1.6v-1.6l3 2.7z"></path><path class="svg-cluster" d="M28.5 41.3c.6 0 1.2.5 1.2 1.2s-.6 1.2-1.2 1.2-1.2-.5-1.2-1.2.5-1.2 1.2-1.2zm-4 0c.6 0 1.2.5 1.2 1.2s-.6 1.2-1.2 1.2c-.7 0-1.2-.5-1.2-1.2s.5-1.2 1.2-1.2zm-4 0c.7 0 1.2.5 1.2 1.2s-.5 1.2-1.2 1.2-1.2-.5-1.2-1.2.5-1.2 1.2-1.2z"></path><path class="svg-icon18" d="m29.1324 30.2288c-1.5287 1.5287-3.0021 2.7161-4.4075 3.6264-3.8264 2.4786-7.1011 2.8713-9.4876 2.5691-1.1791-.1493-2.114-.4647-2.7656-.751-.3259-.1431-.582-.2795-.7638-.3851-.091-.0529-.1636-.0982-.2172-.133-.0268-.0174-.0489-.0322-.0663-.044l-.0224-.0154-.0085-.006-.0036-.0025-.0031-.0023-.5583-.3988v-7.4994l8.4044-1.2006 4.9824 4.9824c.9597-.7023 1.9724-1.5664 3.0314-2.6254 1.0591-1.059 1.9231-2.0718 2.6254-3.0315l-4.9824-4.9824 1.2006-8.4044h7.4994l.3989.5584.0263.0378-.0149-.0211-.0104-.0152.0037.0052.0061.0086.0155.0225c.0119.0174.0267.0397.0442.0667.035.0539.0806.1269.1337.2185.1063.183.2433.4408.3871.7688.2875.656.6036 1.597.7511 2.7839.2985 2.4021-.1085 5.6965-2.6251 9.5435-.9033 1.381-2.0743 2.827-3.5735 4.3263z"/><path class="svg-outline" d="m12.1618 28.3432v5.6568s4.702 3.3586 11.8382-1.2639l-1.5-1.5972-3.7386-3.7386z"/><path class="svg-outline" d="m26.3039 19.8579 3.6421 3.6421 1.6553 1.6553c4.6794-7.1692 1.3022-11.8971 1.3022-11.8971h-5.6568z"/><path class="svg-outline" d="m24 32.7361 4.1895-3.4502 3.4119-4.1306"/></svg>
