<svg xmlns="http://www.w3.org/2000/svg" class="svg-bkgd10" width="32" height="32" viewBox="0 0 48 48"><path class="svg-shortcut" d="M28 42.5l-3 2.7v-1.7c-.4 0-1.4 0-2.5.6-1.3 1-1.5 1.6-1.5 1.6s-.4-1.2.8-2.7c1.2-1.6 2.6-1.7 3.2-1.6v-1.6l3 2.7z"></path><path class="svg-cluster" d="M28.5 41.3c.6 0 1.2.5 1.2 1.2s-.6 1.2-1.2 1.2-1.2-.5-1.2-1.2.5-1.2 1.2-1.2zm-4 0c.6 0 1.2.5 1.2 1.2s-.6 1.2-1.2 1.2c-.7 0-1.2-.5-1.2-1.2s.5-1.2 1.2-1.2zm-4 0c.7 0 1.2.5 1.2 1.2s-.5 1.2-1.2 1.2-1.2-.5-1.2-1.2.5-1.2 1.2-1.2z"></path><path class="svg-icon18" d="m11.6095 9.72388-1.88562 1.88562 15.06982 15.0698c-.26-.0084-.5245-.0126-.7937-.0126-3.9996 0-7.0151.938-9.0506 2.6565-2.0645 1.743-2.9494 4.1442-2.9494 6.6768v2.6667h28.7362l-11.3769-11.2914-.1363-.0379z"/><path class="svg-icon18" d="m18.7961 13.1661c1.2196-1.5214 3.098-2.4994 5.2039-2.4994 3.6819 0 6.6667 2.9848 6.6667 6.6667 0 2.1059-.978 3.9843-2.4994 5.2039l-.932.7471-9.1864-9.1863z"/><path class="svg-outline" d="m13.5 36v1h23.5l-8.5-8.5c-1.3124-.3655-2.6945-.5-4.5-.5-7.6191 0-10.5 3.5787-10.5 8z"/><path class="svg-outline" d="m29.3333 17.3333c0-2.9455-2.3878-5.3333-5.3333-5.3333-1.6842 0-3.1862.7807-4.1636 2l7.4969 7.4969c1.2193-.9774 2-2.4793 2-4.1636z"/><path class="svg-outline" d="m10.6667 10.6667 1.3333 1.3333 18.6667 18.6667 7.3333 7.3333"/></svg>
