<svg viewBox="0 0 28 28" xmlns="http://www.w3.org/2000/svg" class="svg-bkgd06" width="24" height="24"><g><path class="svg-shortcut" d="M28 42.5l-3 2.7v-1.7c-.4 0-1.4 0-2.5.6-1.3 1-1.5 1.6-1.5 1.6s-.4-1.2.8-2.7c1.2-1.6 2.6-1.7 3.2-1.6v-1.6l3 2.7z"/></g><g><path class="svg-cluster" d="M28.5 41.3c.6 0 1.2.5 1.2 1.2s-.6 1.2-1.2 1.2-1.2-.5-1.2-1.2.5-1.2 1.2-1.2zm-4 0c.6 0 1.2.5 1.2 1.2s-.6 1.2-1.2 1.2c-.7 0-1.2-.5-1.2-1.2s.5-1.2 1.2-1.2zm-4 0c.7 0 1.2.5 1.2 1.2s-.5 1.2-1.2 1.2-1.2-.5-1.2-1.2.5-1.2 1.2-1.2z"/></g><g><path class="svg-icon16" d="m14 25c-1.8 0-3.5-1.1-4.3-2.8l1.8-.8c.5 1 1.4 1.7 2.5 1.6 1.1 0 1.9-.6 2.4-1.6l1.8.8c-.7 1.7-2.3 2.8-4.2 2.8zm10-5h-20v-2c2.2 0 2.3-5.1 2.3-5.1v-2.2c0-4.3 3.5-7.7 7.7-7.7s7.7 3.4 7.7 7.7v2.2c0 .1.1 5.1 2.3 5.1zm-16.8-2h13.7c-.9-1.5-1.2-3.6-1.2-5.1v-2.2c0-3.2-2.6-5.7-5.7-5.7s-5.7 2.5-5.7 5.7v2.2c0 1.5-.3 3.6-1.1 5.1z"/></g><g><path class="svg-outline" d="M10.6667 21.7778C12.0167 24.7578 16.0744 24.7244 17.3333 21.7778M20.6667 12.8889V10.6667C20.6667 6.98444 17.6811 4 14 4C10.3189 4 7.33333 6.98444 7.33333 10.6667V12.8889C7.33333 12.8889 7.33333 19 4 19H24C20.6667 19 20.6667 12.8889 20.6667 12.8889Z"/></g></svg>
