<svg xmlns="http://www.w3.org/2000/svg" class="svg-bkgd10" width="32" height="32" viewBox="0 0 48 48"><g><path class="svg-shortcut" d="M28 42.5l-3 2.7v-1.7c-.4 0-1.4 0-2.5.6-1.3 1-1.5 1.6-1.5 1.6s-.4-1.2.8-2.7c1.2-1.6 2.6-1.7 3.2-1.6v-1.6l3 2.7z"/></g><g><path class="svg-cluster" d="M28.5 41.3c.6 0 1.2.5 1.2 1.2s-.6 1.2-1.2 1.2-1.2-.5-1.2-1.2.5-1.2 1.2-1.2zm-4 0c.6 0 1.2.5 1.2 1.2s-.6 1.2-1.2 1.2c-.7 0-1.2-.5-1.2-1.2s.5-1.2 1.2-1.2zm-4 0c.7 0 1.2.5 1.2 1.2s-.5 1.2-1.2 1.2-1.2-.5-1.2-1.2.5-1.2 1.2-1.2z"/></g><g><path class="svg-icon17" d="M35.4 26.37h-2.32a9.88 9.88 0 0 1-.93 2.33l1.63 1.63a1.63 1.63 0 0 1 0 2.3l-1.15 1.15a1.63 1.63 0 0 1-2.3 0l-1.63-1.63a10.13 10.13 0 0 1-2.36.93v2.3a1.53 1.53 0 0 1-1.52 1.63H23.2a1.53 1.53 0 0 1-1.55-1.58v-2.3a9.98 9.98 0 0 1-2.33-.97l-1.63 1.63a1.63 1.63 0 0 1-2.3 0l-1.16-1.15a1.63 1.63 0 0 1 0-2.3l1.63-1.63a9.87 9.87 0 0 1-.93-2.33h-2.3A1.56 1.56 0 0 1 11 24.82V23.2a1.6 1.6 0 0 1 1.64-1.6h2.3a9.58 9.58 0 0 1 .94-2.28l-1.64-1.63a1.63 1.63 0 0 1 0-2.3l1.15-1.16a1.63 1.63 0 0 1 2.3 0l1.62 1.63a9.88 9.88 0 0 1 2.33-.93v-2.3A1.56 1.56 0 0 1 23.2 11h1.63a1.56 1.56 0 0 1 1.55 1.63v2.3a9.9 9.9 0 0 1 2.32.94l1.63-1.63a1.63 1.63 0 0 1 2.3 0l1.15 1.15a1.63 1.63 0 0 1 0 2.3l-1.63 1.62a9.6 9.6 0 0 1 .94 2.3h2.3A1.6 1.6 0 0 1 37 23.2v1.63a1.56 1.56 0 0 1-1.6 1.54zM24 18.97a5 5 0 1 0 5 5.03 5 5 0 0 0-5-5.02z"/></g><g><path class="svg-outline" d="M35.39 26.37h-2.31a9.88 9.88 0 0 1-.93 2.33l1.63 1.63a1.63 1.63 0 0 1 0 2.3l-1.15 1.15a1.63 1.63 0 0 1-2.3 0l-1.63-1.63a10.13 10.13 0 0 1-2.36.93v2.3a1.53 1.53 0 0 1-1.52 1.63H23.2a1.53 1.53 0 0 1-1.55-1.59v-2.3a9.98 9.98 0 0 1-2.33-.97l-1.63 1.63a1.63 1.63 0 0 1-2.3 0l-1.15-1.15a1.63 1.63 0 0 1 0-2.3l1.63-1.63a9.87 9.87 0 0 1-.93-2.33h-2.3A1.56 1.56 0 0 1 11 24.82V23.2a1.6 1.6 0 0 1 1.63-1.59h2.3a9.59 9.59 0 0 1 .94-2.29l-1.64-1.63a1.63 1.63 0 0 1 0-2.3l1.15-1.15a1.63 1.63 0 0 1 2.3 0l1.63 1.63a9.88 9.88 0 0 1 2.33-.93v-2.3A1.56 1.56 0 0 1 23.2 11h1.63a1.56 1.56 0 0 1 1.55 1.62v2.3a9.89 9.89 0 0 1 2.32.94l1.63-1.63a1.63 1.63 0 0 1 2.3 0l1.15 1.15a1.63 1.63 0 0 1 0 2.3l-1.63 1.63a9.6 9.6 0 0 1 .94 2.29h2.3A1.6 1.6 0 0 1 37 23.2v1.63a1.56 1.56 0 0 1-1.62 1.54zm-11.34-7.03a4.6 4.6 0 1 0 4.6 4.6 4.6 4.6 0 0 0-4.6-4.6z"/></g></svg>