<svg height="24" width="24" viewBox="0 0 24 24" preserveAspectRatio="none" xmlns="http://www.w3.org/2000/svg"><path class="svg-oracle-chat-icon-image" d="M4.014 3C2.911 3 2 3.888 2 4.992v15c0 .6.408 1.008 1.007 1.008h.6a.887.887 0 00.695-.288l3.094-3.12c.407-.384.91-.6 1.415-.6h11.175C21.089 16.992 22 16.104 22 15V4.992C22 3.888 21.089 3 19.986 3zm3.981 7.008A1.986 1.986 0 016.005 12c-1.103 0-1.99-.888-1.99-1.992s.887-2.016 1.99-2.016 1.99.912 1.99 2.016zm5.995 0C13.99 11.112 13.103 12 12 12s-1.99-.888-1.99-1.992.887-2.016 1.99-2.016 1.99.912 1.99 2.016zm5.996 0c0 1.104-.888 1.992-1.99 1.992s-1.991-.888-1.991-1.992.887-2.016 1.99-2.016 1.99.912 1.99 2.016z"/></svg>
