<svg viewBox="0 0 28 28" xmlns="http://www.w3.org/2000/svg" class="svg-bkgd06" width="24" height="24"><g><path class="svg-shortcut" d="M28 42.5l-3 2.7v-1.7c-.4 0-1.4 0-2.5.6-1.3 1-1.5 1.6-1.5 1.6s-.4-1.2.8-2.7c1.2-1.6 2.6-1.7 3.2-1.6v-1.6l3 2.7z"/></g><g><path class="svg-cluster" d="M28.5 41.3c.6 0 1.2.5 1.2 1.2s-.6 1.2-1.2 1.2-1.2-.5-1.2-1.2.5-1.2 1.2-1.2zm-4 0c.6 0 1.2.5 1.2 1.2s-.6 1.2-1.2 1.2c-.7 0-1.2-.5-1.2-1.2s.5-1.2 1.2-1.2zm-4 0c.7 0 1.2.5 1.2 1.2s-.5 1.2-1.2 1.2-1.2-.5-1.2-1.2.5-1.2 1.2-1.2z"/></g><g><path class="svg-icon16" d="m24.3 25.7-6.7-6.7c-1.6 1.3-3.7 2.1-6 2.1-5.3 0-9.6-4.3-9.6-9.6 0-5.2 4.3-9.5 9.6-9.5s9.6 4.3 9.6 9.6c0 2.3-.8 4.4-2.1 6l6.7 6.7zm-12.7-21.7c-4.2 0-7.6 3.4-7.6 7.6s3.4 7.6 7.6 7.6 7.6-3.4 7.6-7.6c-.1-4.2-3.5-7.6-7.6-7.6z"/></g><g><path class="svg-outline" d="M17.6667 17.6667L25 25M20.1111 11.5556C20.1111 16.2807 16.2807 20.1111 11.5556 20.1111C6.83045 20.1111 3 16.2807 3 11.5556C3 6.83045 6.83045 3 11.5556 3C16.2807 3 20.1111 6.83045 20.1111 11.5556Z"/></g></svg>
