<svg xmlns="http://www.w3.org/2000/svg" class="svg-bkgd04" width="32" height="32" viewBox="0 0 48 48"><g><path class="svg-shortcut" d="M28.05 42.5L25 45.2v-1.7c-.44-.1-1.4-.15-2.45.6-1.4 1-1.57 1.47-1.57 1.47s-.4-1.24.8-2.7c1.26-1.54 2.67-1.56 3.23-1.5v-1.63l3.05 2.72z"/></g><g><path class="svg-cluster" d="M28.47 41.3c.65 0 1.2.55 1.2 1.2s-.55 1.2-1.2 1.2-1.2-.54-1.2-1.2.54-1.2 1.2-1.2zm-4 0c.65 0 1.2.55 1.2 1.2s-.55 1.2-1.2 1.2c-.66 0-1.2-.54-1.2-1.2s.54-1.2 1.2-1.2zm-3.97 0c.66 0 1.2.55 1.2 1.2s-.54 1.2-1.2 1.2-1.2-.54-1.2-1.2.54-1.2 1.2-1.2z"/></g><g><path class="svg-icon02" d="M37.588,13.034L26.121,24.5,37.1,35.481,34.981,37.6,24,26.621,13.019,37.6,10.9,35.481,21.879,24.5,10.412,13.034l2.121-2.121L24,22.379,35.467,10.912Z"/></g><g><path class="svg-outline" d="M37,37L11,11m0,26L37,11"/></g>
</svg>
