<svg viewBox="0 0 28 28" xmlns="http://www.w3.org/2000/svg" class="svg-bkgd06" width="24" height="24"><g><path class="svg-shortcut" d="M28 42.5l-3 2.7v-1.7c-.4 0-1.4 0-2.5.6-1.3 1-1.5 1.6-1.5 1.6s-.4-1.2.8-2.7c1.2-1.6 2.6-1.7 3.2-1.6v-1.6l3 2.7z"/></g><g><path class="svg-cluster" d="M28.5 41.3c.6 0 1.2.5 1.2 1.2s-.6 1.2-1.2 1.2-1.2-.5-1.2-1.2.5-1.2 1.2-1.2zm-4 0c.6 0 1.2.5 1.2 1.2s-.6 1.2-1.2 1.2c-.7 0-1.2-.5-1.2-1.2s.5-1.2 1.2-1.2zm-4 0c.7 0 1.2.5 1.2 1.2s-.5 1.2-1.2 1.2-1.2-.5-1.2-1.2.5-1.2 1.2-1.2z"/></g><g><path class="svg-icon16" d="m21.5 25.2-7.5-3-7.5 3 1.5-7.4-7.1-7.1 8.8-1.5 4.3-7.1 4.3 7.1 8.8 1.5-7.1 7.1zm-7.5-5.2 4.8 1.9-1-4.8 5.1-5.1-5.9-1-3-5.1-3 5.1-5.9 1 5.1 5.1-1 4.8z"/></g><g><path class="svg-outline" d="M10.3333 10.1111L14 4L17.6667 10.1111L25 11.3333L18.8889 17.4444L20.1111 23.5556L14 21.1111L7.88889 23.5556L9.11111 17.4444L3 11.3333L10.3333 10.1111Z"/></g></svg>
